<?xml version="1.0" encoding="UTF-8"?>
<svg width="1200pt" height="1200pt" version="1.1" viewBox="0 0 1200 1200" xmlns="http://www.w3.org/2000/svg">
 <path d="m600 54.547c-180.16 0-339.7 87.094-438.97 221.48l168.48 291.82c7.8281-65.664 39.25-126.25 88.418-170.48 49.168-44.227 112.73-69.082 178.86-69.941 1.0703-0.11719 2.1484-0.16797 3.2227-0.16016h472.45c-94.23-163.06-270.31-272.73-472.45-272.73zm-472.43 272.67c-46.371 80.227-73.031 173.33-73.031 272.78 0 280.94 211.66 511.77 484.43 542.05l168.22-291.34v-0.003906c-33.875 14.512-70.344 22.004-107.2 22.027-47.133-0.0625-93.441-12.34-134.42-35.629-40.973-23.293-75.211-56.809-99.375-97.273-0.89062-1.0898-1.6914-2.2461-2.3984-3.4609l-236.24-409.14zm472.43 54.598c-57.867 0-113.36 22.988-154.28 63.906-40.918 40.914-63.906 96.41-63.906 154.28 0 38.297 10.082 75.922 29.234 109.09 19.148 33.168 46.691 60.711 79.859 79.859 33.168 19.148 70.789 29.23 109.09 29.23s75.922-10.082 109.09-29.23c33.168-19.148 60.711-46.691 79.859-79.859 19.152-33.168 29.234-70.793 29.234-109.09 0-38.301-10.082-75.926-29.234-109.09-19.148-33.168-46.691-60.711-79.859-79.859-33.168-19.148-70.789-29.23-109.09-29.23zm163.19 0c33.953 25.355 61.531 58.277 80.547 96.148 19.016 37.875 28.941 79.656 28.996 122.04-0.10938 46.266-11.988 91.742-34.516 132.15-0.54688 1.457-1.2148 2.8672-2 4.2109l-236.18 409.09c301.55-0.015625 545.43-243.9 545.43-545.45 0-77.625-16.242-151.38-45.383-218.18z" fill="#682079"/>
</svg>
